<svg version="1.1" id="Layer_1" xmlns="http://www.w3.org/2000/svg" xmlns:xlink="http://www.w3.org/1999/xlink" x="0px" y="0px"
	 width="100%" viewBox="0 0 6251 2084" enable-background="new 0 0 6251 2084" xml:space="preserve">
<path fill="#FFFFFF" opacity="1.000000" stroke="none" 
	d="
M4530.000000,2086.000000 
	C3020.000000,2086.000000 1511.000000,2086.000000 2.000000,2086.000000 
	C2.000000,1391.333374 2.000000,696.666687 2.000000,2.000000 
	C2086.000000,2.000000 4170.000000,2.000000 6254.000000,2.000000 
	C6254.000000,696.666687 6254.000000,1391.333374 6254.000000,2086.000000 
	C5679.666504,2086.000000 5105.333496,2086.000000 4530.000000,2086.000000 
M1330.360229,837.980896 
	C1330.360229,799.434570 1330.360229,760.888245 1330.360229,722.290283 
	C1268.549438,722.290283 1207.773193,722.290283 1147.066528,722.290283 
	C1147.066528,975.666565 1147.066528,1228.415894 1147.066528,1480.926758 
	C1212.264893,1480.926758 1276.727905,1480.926758 1341.666260,1480.926758 
	C1341.666260,1476.547974 1341.666382,1472.907593 1341.666382,1469.267090 
	C1341.666504,1351.278320 1341.733398,1233.289429 1341.594727,1115.300903 
	C1341.573608,1097.306885 1342.752563,1079.481079 1345.979858,1061.797119 
	C1354.064575,1017.497437 1372.674316,978.285522 1404.503174,946.229797 
	C1454.886475,895.487183 1516.472656,879.293457 1585.572266,892.352112 
	C1627.321899,900.242065 1655.705933,925.443726 1668.707031,966.812683 
	C1674.245728,984.436462 1676.282349,1002.479370 1676.291504,1020.782898 
	C1676.366455,1170.435303 1676.331665,1320.087769 1676.344727,1469.740234 
	C1676.345093,1473.586670 1676.510254,1477.433105 1676.595215,1481.133423 
	C1704.643921,1483.104248 1863.807739,1482.198364 1871.666260,1480.002808 
	C1871.666260,1476.476685 1871.666382,1472.830444 1871.666382,1469.184204 
	C1871.666504,1320.531738 1871.629761,1171.879150 1871.698730,1023.226624 
	C1871.711670,995.309509 1870.402710,967.495544 1866.285645,939.869446 
	C1861.007935,904.455505 1851.080688,870.491943 1833.352295,839.173279 
	C1811.671387,800.871704 1781.484741,771.369202 1742.115845,751.262085 
	C1707.822632,733.747131 1671.081421,725.354370 1633.126465,722.552734 
	C1598.281128,719.980713 1563.416138,721.077637 1528.913574,727.844604 
	C1469.556763,739.486267 1416.950317,765.044250 1371.155151,804.446716 
	C1357.824341,815.916687 1345.302246,828.326538 1331.608887,839.687683 
	C1331.274536,839.730957 1330.940308,839.774170 1330.360229,837.980896 
M2763.600830,1476.605957 
	C2643.581787,1344.643311 2523.562988,1212.680664 2402.940186,1080.054199 
	C2409.005615,1073.824219 2414.619629,1068.204224 2420.072510,1062.432251 
	C2447.940430,1032.933105 2475.756104,1003.384583 2503.613037,973.874939 
	C2515.946045,960.810242 2528.375000,947.835938 2540.687256,934.751648 
	C2571.686768,901.807861 2602.591064,868.773987 2633.639160,835.876160 
	C2653.510010,814.821350 2673.616943,793.989075 2693.522217,772.966675 
	C2702.119873,763.886780 2710.476074,754.578552 2719.928711,744.300903 
	C2717.286133,743.964050 2716.113281,743.684082 2714.940674,743.683777 
	C2643.275391,743.662598 2571.609619,743.715942 2499.944824,743.546082 
	C2495.250732,743.534912 2492.672363,745.760254 2489.933594,748.803345 
	C2477.706055,762.389160 2465.435059,775.936951 2453.086182,789.412415 
	C2436.912354,807.061157 2420.585449,824.569275 2404.442139,842.245728 
	C2381.803955,867.034241 2359.291504,891.937683 2336.692627,916.762390 
	C2316.331055,939.129333 2295.951172,961.479736 2275.522949,983.785461 
	C2270.118896,989.686218 2264.504883,995.394897 2257.393555,1002.866272 
	C2257.393555,791.686096 2257.393555,583.130371 2257.393555,374.671936 
	C2238.763916,371.981201 2073.413818,371.410156 2064.722412,373.913513 
	C2062.481934,410.549469 2063.644287,1473.456909 2065.933350,1481.297974 
	C2099.556641,1483.286133 2249.815918,1482.294922 2258.001953,1479.832642 
	C2258.001953,1380.877441 2258.001953,1281.717773 2258.001953,1180.672119 
	C2261.009521,1183.674927 2262.886230,1185.344727 2264.529053,1187.219360 
	C2297.153320,1224.447266 2329.745361,1261.703369 2362.354492,1298.944702 
	C2414.003174,1357.930176 2465.737305,1416.841431 2517.152832,1476.029419 
	C2520.937988,1480.386963 2524.489258,1481.766113 2529.844238,1481.754639 
	C2590.176270,1481.626709 2650.508301,1481.690186 2710.840576,1481.663208 
	C2728.503174,1481.655396 2746.165771,1481.524048 2765.120117,1481.756836 
	C2764.778564,1480.454590 2764.437012,1479.152344 2763.600830,1476.605957 
M4531.717773,838.644775 
	C4531.717773,799.794678 4531.717773,760.944641 4531.717773,722.358521 
	C4469.178223,722.358521 4408.032227,722.358521 4346.948242,722.358521 
	C4344.814453,749.152832 4345.784180,1473.835815 4347.907715,1481.272217 
	C4378.887695,1483.219971 4533.769043,1482.261475 4541.666992,1479.965332 
	C4541.666992,1476.424072 4541.666992,1472.771729 4541.666992,1469.119385 
	C4541.666992,1354.799927 4541.627930,1240.480469 4541.703125,1126.161011 
	C4541.716309,1105.576294 4542.900391,1085.058838 4546.114258,1064.670288 
	C4551.884277,1028.067139 4563.929199,993.891602 4585.301758,963.409058 
	C4604.154785,936.519836 4627.567383,914.848633 4658.168457,901.713989 
	C4681.775879,891.581055 4706.441406,887.819397 4732.025879,888.264893 
	C4775.743164,889.026184 4807.959473,910.497681 4823.987305,950.522278 
	C4833.889160,975.248962 4837.426758,1001.252380 4837.490723,1027.494141 
	C4837.850098,1174.808716 4837.664062,1322.124756 4837.664062,1469.440186 
	C4837.664062,1473.318604 4837.664551,1477.197144 4837.664551,1481.208008 
	C4903.083984,1481.208008 4967.253418,1481.208008 5032.335449,1481.208008 
	C5032.335449,1477.173096 5032.335938,1473.593262 5032.335938,1470.013428 
	C5032.335938,1356.027222 5032.182129,1242.040771 5032.486816,1128.055298 
	C5032.537109,1109.188965 5033.672852,1090.218384 5035.914551,1071.488525 
	C5039.857422,1038.557129 5049.464844,1007.193909 5066.568848,978.529846 
	C5090.187988,938.946167 5121.855469,908.944763 5167.149902,895.541565 
	C5192.686523,887.985107 5218.737793,885.529846 5244.907715,890.392212 
	C5280.875977,897.075195 5303.458984,919.750366 5315.909180,953.352783 
	C5325.383301,978.922913 5328.232910,1005.626465 5328.261230,1032.613647 
	C5328.412598,1178.262329 5328.333008,1323.911499 5328.333008,1469.560425 
	C5328.333008,1473.417114 5328.333008,1477.273926 5328.333008,1480.963135 
	C5394.194336,1480.963135 5458.655762,1480.963135 5523.666992,1480.963135 
	C5523.666992,1476.627319 5523.666992,1472.998657 5523.666992,1469.369995 
	C5523.666992,1322.721069 5523.705566,1176.072266 5523.608398,1029.423340 
	C5523.598145,1014.149719 5522.502930,998.878418 5522.405273,983.602844 
	C5522.271484,962.625244 5519.684082,941.923584 5516.136230,921.322388 
	C5510.404785,888.046326 5500.586426,856.110352 5483.567871,826.736511 
	C5463.553711,792.191101 5436.001953,765.582397 5400.051270,747.748779 
	C5368.612793,732.153137 5335.056152,724.859985 5300.414062,722.479797 
	C5271.545898,720.496399 5242.666504,721.008545 5213.930176,725.612854 
	C5178.117676,731.351135 5144.443848,742.840942 5113.089844,761.136597 
	C5073.880859,784.016174 5042.704102,815.363831 5016.680176,852.186707 
	C5014.679199,855.018372 5012.672852,857.847046 5010.221191,861.310181 
	C5005.012207,850.381836 5000.847656,840.718750 4995.914551,831.465637 
	C4979.482422,800.643677 4956.826660,775.618286 4926.950195,757.081848 
	C4891.297852,734.961182 4851.883301,725.617737 4810.770996,722.506165 
	C4787.250000,720.725952 4763.637695,721.001709 4740.057129,723.570190 
	C4705.005859,727.388123 4671.600098,736.884644 4640.265625,752.749512 
	C4598.461426,773.915955 4563.326660,803.554138 4532.980469,840.669434 
	C4532.578125,840.643982 4532.175781,840.618591 4531.717773,838.644775 
M2918.773926,799.777588 
	C2913.384521,805.167786 2907.886719,810.454651 2902.623535,815.965637 
	C2875.765869,844.087341 2856.596436,876.830505 2843.678467,913.437561 
	C2832.819336,944.209290 2828.593994,976.049683 2828.410645,1008.414368 
	C2828.054199,1071.403931 2828.202148,1134.397217 2828.382080,1197.388306 
	C2828.424561,1212.329346 2828.829102,1227.317505 2830.089111,1242.197510 
	C2833.271729,1279.784912 2843.876465,1315.304443 2862.352539,1348.226807 
	C2899.230713,1413.939697 2953.598145,1458.170410 3025.863037,1480.109863 
	C3030.283936,1481.451782 3034.711182,1482.772217 3039.691162,1484.269775 
	C3039.691162,1495.574829 3039.691162,1506.533325 3039.691162,1517.491821 
	C3039.691162,1528.490356 3039.691162,1539.488892 3039.691162,1550.487427 
	C3039.691162,1561.485962 3039.691162,1572.484497 3039.691162,1583.483032 
	C3039.691162,1594.814819 3039.691162,1606.146729 3039.691162,1617.478516 
	C3039.691162,1628.477051 3039.691162,1639.475586 3039.691162,1650.474121 
	C3039.691162,1661.472656 3039.516602,1672.474609 3039.740479,1683.468628 
	C3039.958740,1694.195557 3038.769775,1705.008789 3040.662842,1716.773926 
	C3043.990967,1714.272461 3046.370850,1712.583374 3048.643555,1710.760864 
	C3136.616699,1640.219727 3224.621826,1569.718628 3312.460693,1499.010620 
	C3319.059814,1493.698242 3325.677734,1491.526367 3334.163330,1491.535522 
	C3525.470947,1491.742310 3716.778809,1491.768188 3908.086426,1491.550415 
	C3922.968262,1491.533447 3937.956787,1490.266235 3952.709717,1488.231201 
	C4022.768066,1478.567871 4080.310303,1445.699219 4125.374023,1391.680054 
	C4167.394531,1341.309448 4188.240234,1282.758667 4188.295410,1217.020752 
	C4188.353027,1148.696533 4188.419922,1080.371948 4188.217773,1012.048340 
	C4188.175293,997.779419 4187.502930,983.465515 4186.202148,969.256470 
	C4183.191406,936.375305 4172.969238,905.468140 4157.796875,876.364990 
	C4137.150391,836.763000 4108.460449,803.947693 4071.779053,778.224854 
	C4025.782471,745.969788 3974.598145,728.599670 3918.592773,728.506836 
	C3648.962891,728.060120 3379.331543,728.328491 3109.700928,728.248962 
	C3093.711914,728.244263 3077.876221,729.282410 3062.056641,731.612000 
	C3007.800293,739.601929 2960.667236,762.543762 2918.773926,799.777588 
M760.334595,1466.778564 
	C760.373230,1471.617554 760.411804,1476.456543 760.449280,1481.149048 
	C789.781982,1483.109253 947.681396,1482.209229 954.974976,1480.209717 
	C954.974976,1227.500366 954.974976,974.858643 954.974976,721.227722 
	C889.584351,740.442078 825.097778,759.390747 760.334656,778.420654 
	C760.334656,1007.747803 760.334656,1236.292114 760.334595,1466.778564 
M828.438965,376.950195 
	C805.537842,382.490204 785.883057,393.961945 769.780762,410.917328 
	C743.761414,438.315186 732.345581,470.845886 735.466736,508.913788 
	C738.424927,544.994507 754.681580,573.169800 782.594421,595.242920 
	C805.454407,613.320374 831.699829,620.284668 860.627930,619.807190 
	C899.330444,619.168335 930.774170,603.555298 955.412231,574.521606 
	C979.718628,545.878784 987.064453,512.075378 980.196289,475.624817 
	C971.011047,426.877411 941.300964,395.512329 894.875610,379.544037 
	C873.645813,372.241913 851.885010,372.852234 828.438965,376.950195 
z"/>
<path fill="#000000" opacity="1.000000" stroke="none" 
	d="
M4534.075684,840.157959 
	C4563.326660,803.554138 4598.461426,773.915955 4640.265625,752.749512 
	C4671.600098,736.884644 4705.005859,727.388123 4740.057129,723.570190 
	C4763.637695,721.001709 4787.250000,720.725952 4810.770996,722.506165 
	C4851.883301,725.617737 4891.297852,734.961182 4926.950195,757.081848 
	C4956.826660,775.618286 4979.482422,800.643677 4995.914551,831.465637 
	C5000.847656,840.718750 5005.012207,850.381836 5010.221191,861.310181 
	C5012.672852,857.847046 5014.679199,855.018372 5016.680176,852.186707 
	C5042.704102,815.363831 5073.880859,784.016174 5113.089844,761.136597 
	C5144.443848,742.840942 5178.117676,731.351135 5213.930176,725.612854 
	C5242.666504,721.008545 5271.545898,720.496399 5300.414062,722.479797 
	C5335.056152,724.859985 5368.612793,732.153137 5400.051270,747.748779 
	C5436.001953,765.582397 5463.553711,792.191101 5483.567871,826.736511 
	C5500.586426,856.110352 5510.404785,888.046326 5516.136230,921.322388 
	C5519.684082,941.923584 5522.271484,962.625244 5522.405273,983.602844 
	C5522.502930,998.878418 5523.598145,1014.149719 5523.608398,1029.423340 
	C5523.705566,1176.072266 5523.666992,1322.721069 5523.666992,1469.369995 
	C5523.666992,1472.998657 5523.666992,1476.627319 5523.666992,1480.963135 
	C5458.655762,1480.963135 5394.194336,1480.963135 5328.333008,1480.963135 
	C5328.333008,1477.273926 5328.333008,1473.417114 5328.333008,1469.560425 
	C5328.333008,1323.911499 5328.412598,1178.262329 5328.261230,1032.613647 
	C5328.232910,1005.626465 5325.383301,978.922913 5315.909180,953.352783 
	C5303.458984,919.750366 5280.875977,897.075195 5244.907715,890.392212 
	C5218.737793,885.529846 5192.686523,887.985107 5167.149902,895.541565 
	C5121.855469,908.944763 5090.187988,938.946167 5066.568848,978.529846 
	C5049.464844,1007.193909 5039.857422,1038.557129 5035.914551,1071.488525 
	C5033.672852,1090.218384 5032.537109,1109.188965 5032.486816,1128.055298 
	C5032.182129,1242.040771 5032.335938,1356.027222 5032.335938,1470.013428 
	C5032.335938,1473.593262 5032.335449,1477.173096 5032.335449,1481.208008 
	C4967.253418,1481.208008 4903.083984,1481.208008 4837.664551,1481.208008 
	C4837.664551,1477.197144 4837.664062,1473.318604 4837.664062,1469.440186 
	C4837.664062,1322.124756 4837.850098,1174.808716 4837.490723,1027.494141 
	C4837.426758,1001.252380 4833.889160,975.248962 4823.987305,950.522278 
	C4807.959473,910.497681 4775.743164,889.026184 4732.025879,888.264893 
	C4706.441406,887.819397 4681.775879,891.581055 4658.168457,901.713989 
	C4627.567383,914.848633 4604.154785,936.519836 4585.301758,963.409058 
	C4563.929199,993.891602 4551.884277,1028.067139 4546.114258,1064.670288 
	C4542.900391,1085.058838 4541.716309,1105.576294 4541.703125,1126.161011 
	C4541.627930,1240.480469 4541.666992,1354.799927 4541.666992,1469.119385 
	C4541.666992,1472.771729 4541.666992,1476.424072 4541.666992,1479.965332 
	C4533.769043,1482.261475 4378.887695,1483.219971 4347.907715,1481.272217 
	C4345.784180,1473.835815 4344.814453,749.152832 4346.948242,722.358521 
	C4408.032227,722.358521 4469.178223,722.358521 4531.717773,722.358521 
	C4531.717773,760.944641 4531.717773,799.794678 4531.898438,840.156921 
	C4532.744629,841.165344 4533.410156,840.661621 4534.075684,840.157959 
z"/>
<path fill="#2E6BF5" opacity="1.000000" stroke="none" 
	d="
M2919.274902,799.276978 
	C2960.667236,762.543762 3007.800293,739.601929 3062.056641,731.612000 
	C3077.876221,729.282410 3093.711914,728.244263 3109.700928,728.248962 
	C3379.331543,728.328491 3648.962891,728.060120 3918.592773,728.506836 
	C3974.598145,728.599670 4025.782471,745.969788 4071.779053,778.224854 
	C4108.460449,803.947693 4137.150391,836.763000 4157.796875,876.364990 
	C4172.969238,905.468140 4183.191406,936.375305 4186.202148,969.256470 
	C4187.502930,983.465515 4188.175293,997.779419 4188.217773,1012.048340 
	C4188.419922,1080.371948 4188.353027,1148.696533 4188.295410,1217.020752 
	C4188.240234,1282.758667 4167.394531,1341.309448 4125.374023,1391.680054 
	C4080.310303,1445.699219 4022.768066,1478.567871 3952.709717,1488.231201 
	C3937.956787,1490.266235 3922.968262,1491.533447 3908.086426,1491.550415 
	C3716.778809,1491.768188 3525.470947,1491.742310 3334.163330,1491.535522 
	C3325.677734,1491.526367 3319.059814,1493.698242 3312.460693,1499.010620 
	C3224.621826,1569.718628 3136.616699,1640.219727 3048.643555,1710.760864 
	C3046.370850,1712.583374 3043.990967,1714.272461 3040.662842,1716.773926 
	C3038.769775,1705.008789 3039.958740,1694.195557 3039.740479,1683.468628 
	C3039.516602,1672.474609 3039.691162,1661.472656 3039.691162,1650.474121 
	C3039.691162,1639.475586 3039.691162,1628.477051 3039.691162,1617.478516 
	C3039.691162,1606.146729 3039.691162,1594.814819 3039.691162,1583.483032 
	C3039.691162,1572.484497 3039.691162,1561.485962 3039.691162,1550.487427 
	C3039.691162,1539.488892 3039.691162,1528.490356 3039.691162,1517.491821 
	C3039.691162,1506.533325 3039.691162,1495.574829 3039.691162,1484.269775 
	C3034.711182,1482.772217 3030.283936,1481.451782 3025.863037,1480.109863 
	C2953.598145,1458.170410 2899.230713,1413.939697 2862.352539,1348.226807 
	C2843.876465,1315.304443 2833.271729,1279.784912 2830.089111,1242.197510 
	C2828.829102,1227.317505 2828.424561,1212.329346 2828.382080,1197.388306 
	C2828.202148,1134.397217 2828.054199,1071.403931 2828.410645,1008.414368 
	C2828.593994,976.049683 2832.819336,944.209290 2843.678467,913.437561 
	C2856.596436,876.830505 2875.765869,844.087341 2902.623535,815.965637 
	C2907.886719,810.454651 2913.384521,805.167786 2919.274902,799.276978 
M3145.574951,1505.740845 
	C3148.120850,1503.606689 3150.778076,1501.591431 3153.195068,1499.320312 
	C3176.232178,1477.675903 3199.238525,1455.999023 3222.233643,1434.310181 
	C3251.282959,1406.911255 3280.498291,1379.683594 3309.196045,1351.921143 
	C3314.951904,1346.352905 3320.467041,1344.135498 3328.396240,1344.143921 
	C3523.037109,1344.350952 3717.677979,1344.334717 3912.319092,1344.209351 
	C3920.910645,1344.203735 3929.648438,1343.544800 3938.069092,1341.909180 
	C3997.427734,1330.378784 4041.273682,1278.577271 4041.603760,1217.122437 
	C4041.981445,1146.800415 4041.586182,1076.474609 4041.758301,1006.150940 
	C4041.807129,986.176941 4038.432373,966.899170 4029.470947,949.169678 
	C4006.230469,903.190125 3969.057129,876.115906 3917.007568,875.993347 
	C3644.711670,875.352234 3372.413330,875.690125 3100.115967,875.723572 
	C3095.129395,875.724243 3090.076904,875.730713 3085.166504,876.472778 
	C3022.330078,885.969849 2975.787109,939.947083 2975.712402,1003.456299 
	C2975.628662,1074.446777 2975.639404,1145.437744 2975.778564,1216.428101 
	C2975.791992,1223.362061 2976.588867,1230.359863 2977.707764,1237.216064 
	C2987.177734,1295.222900 3034.847168,1339.283081 3093.340088,1343.704468 
	C3106.929688,1344.731689 3120.641602,1344.114258 3134.295898,1344.337891 
	C3136.812988,1344.379028 3139.322998,1344.826660 3142.308594,1345.135620 
	C3142.308594,1357.562866 3142.287354,1369.209351 3142.312744,1380.855835 
	C3142.403076,1422.511597 3142.509033,1464.167358 3142.410156,1506.763184 
	C3143.060791,1506.607178 3143.711426,1506.451050 3145.574951,1505.740845 
z"/>
<path fill="#000000" opacity="1.000000" stroke="none" 
	d="
M2763.828369,1481.449463 
	C2746.165771,1481.524048 2728.503174,1481.655396 2710.840576,1481.663208 
	C2650.508301,1481.690186 2590.176270,1481.626709 2529.844238,1481.754639 
	C2524.489258,1481.766113 2520.937988,1480.386963 2517.152832,1476.029419 
	C2465.737305,1416.841431 2414.003174,1357.930176 2362.354492,1298.944702 
	C2329.745361,1261.703369 2297.153320,1224.447266 2264.529053,1187.219360 
	C2262.886230,1185.344727 2261.009521,1183.674927 2258.001953,1180.672119 
	C2258.001953,1281.717773 2258.001953,1380.877441 2258.001953,1479.832642 
	C2249.815918,1482.294922 2099.556641,1483.286133 2065.933350,1481.297974 
	C2063.644287,1473.456909 2062.481934,410.549469 2064.722412,373.913513 
	C2073.413818,371.410156 2238.763916,371.981201 2257.393555,374.671936 
	C2257.393555,583.130371 2257.393555,791.686096 2257.393555,1002.866272 
	C2264.504883,995.394897 2270.118896,989.686218 2275.522949,983.785461 
	C2295.951172,961.479736 2316.331055,939.129333 2336.692627,916.762390 
	C2359.291504,891.937683 2381.803955,867.034241 2404.442139,842.245728 
	C2420.585449,824.569275 2436.912354,807.061157 2453.086182,789.412415 
	C2465.435059,775.936951 2477.706055,762.389160 2489.933594,748.803345 
	C2492.672363,745.760254 2495.250732,743.534912 2499.944824,743.546082 
	C2571.609619,743.715942 2643.275391,743.662598 2714.940674,743.683777 
	C2716.113281,743.684082 2717.286133,743.964050 2719.928711,744.300903 
	C2710.476074,754.578552 2702.119873,763.886780 2693.522217,772.966675 
	C2673.616943,793.989075 2653.510010,814.821350 2633.639160,835.876160 
	C2602.591064,868.773987 2571.686768,901.807861 2540.687256,934.751648 
	C2528.375000,947.835938 2515.946045,960.810242 2503.613037,973.874939 
	C2475.756104,1003.384583 2447.940430,1032.933105 2420.072510,1062.432251 
	C2414.619629,1068.204224 2409.005615,1073.824219 2402.940186,1080.054199 
	C2523.562988,1212.680664 2643.581787,1344.643311 2763.765625,1477.825806 
	C2763.896240,1479.846924 2763.862305,1480.648193 2763.828369,1481.449463 
z"/>
<path fill="#000000" opacity="1.000000" stroke="none" 
	d="
M1332.409424,840.305664 
	C1345.302246,828.326538 1357.824341,815.916687 1371.155151,804.446716 
	C1416.950317,765.044250 1469.556763,739.486267 1528.913574,727.844604 
	C1563.416138,721.077637 1598.281128,719.980713 1633.126465,722.552734 
	C1671.081421,725.354370 1707.822632,733.747131 1742.115845,751.262085 
	C1781.484741,771.369202 1811.671387,800.871704 1833.352295,839.173279 
	C1851.080688,870.491943 1861.007935,904.455505 1866.285645,939.869446 
	C1870.402710,967.495544 1871.711670,995.309509 1871.698730,1023.226624 
	C1871.629761,1171.879150 1871.666504,1320.531738 1871.666382,1469.184204 
	C1871.666382,1472.830444 1871.666260,1476.476685 1871.666260,1480.002808 
	C1863.807739,1482.198364 1704.643921,1483.104248 1676.595215,1481.133423 
	C1676.510254,1477.433105 1676.345093,1473.586670 1676.344727,1469.740234 
	C1676.331665,1320.087769 1676.366455,1170.435303 1676.291504,1020.782898 
	C1676.282349,1002.479370 1674.245728,984.436462 1668.707031,966.812683 
	C1655.705933,925.443726 1627.321899,900.242065 1585.572266,892.352112 
	C1516.472656,879.293457 1454.886475,895.487183 1404.503174,946.229797 
	C1372.674316,978.285522 1354.064575,1017.497437 1345.979858,1061.797119 
	C1342.752563,1079.481079 1341.573608,1097.306885 1341.594727,1115.300903 
	C1341.733398,1233.289429 1341.666504,1351.278320 1341.666382,1469.267090 
	C1341.666382,1472.907593 1341.666260,1476.547974 1341.666260,1480.926758 
	C1276.727905,1480.926758 1212.264893,1480.926758 1147.066528,1480.926758 
	C1147.066528,1228.415894 1147.066528,975.666565 1147.066528,722.290283 
	C1207.773193,722.290283 1268.549438,722.290283 1330.360229,722.290283 
	C1330.360229,760.888245 1330.360229,799.434570 1330.265625,839.334717 
	C1330.397217,841.276611 1330.623169,841.864685 1330.849121,842.452759 
	C1331.369263,841.737122 1331.889404,841.021423 1332.409424,840.305664 
z"/>
<path fill="#000000" opacity="1.000000" stroke="none" 
	d="
M760.334595,1465.807373 
	C760.334656,1236.292114 760.334656,1007.747803 760.334656,778.420654 
	C825.097778,759.390747 889.584351,740.442078 954.974976,721.227722 
	C954.974976,974.858643 954.974976,1227.500366 954.974976,1480.209717 
	C947.681396,1482.209229 789.781982,1483.109253 760.449280,1481.149048 
	C760.411804,1476.456543 760.373230,1471.617554 760.334595,1465.807373 
z"/>
<path fill="#010101" opacity="1.000000" stroke="none" 
	d="
M829.248169,376.708984 
	C851.885010,372.852234 873.645813,372.241913 894.875610,379.544037 
	C941.300964,395.512329 971.011047,426.877411 980.196289,475.624817 
	C987.064453,512.075378 979.718628,545.878784 955.412231,574.521606 
	C930.774170,603.555298 899.330444,619.168335 860.627930,619.807190 
	C831.699829,620.284668 805.454407,613.320374 782.594421,595.242920 
	C754.681580,573.169800 738.424927,544.994507 735.466736,508.913788 
	C732.345581,470.845886 743.761414,438.315186 769.780762,410.917328 
	C785.883057,393.961945 805.537842,382.490204 829.248169,376.708984 
z"/>
<path fill="#BDBDBD" opacity="1.000000" stroke="none" 
	d="
M1332.009155,839.996704 
	C1331.889404,841.021423 1331.369263,841.737122 1330.849121,842.452759 
	C1330.623169,841.864685 1330.397217,841.276611 1330.388550,840.252991 
	C1330.940308,839.774170 1331.274536,839.730957 1332.009155,839.996704 
z"/>
<path fill="#3F3F3F" opacity="1.000000" stroke="none" 
	d="
M2764.474121,1481.603149 
	C2763.862305,1480.648193 2763.896240,1479.846924 2764.012695,1478.447876 
	C2764.437012,1479.152344 2764.778564,1480.454590 2764.474121,1481.603149 
z"/>
<path fill="#424242" opacity="1.000000" stroke="none" 
	d="
M4533.528320,840.413696 
	C4533.410156,840.661621 4532.744629,841.165344 4531.926270,841.131104 
	C4532.175781,840.618591 4532.578125,840.643982 4533.528320,840.413696 
z"/>
<path fill="#FFFFFF" opacity="1.000000" stroke="none" 
	d="
M3142.609375,1505.823120 
	C3142.509033,1464.167358 3142.403076,1422.511597 3142.312744,1380.855835 
	C3142.287354,1369.209351 3142.308594,1357.562866 3142.308594,1345.135620 
	C3139.322998,1344.826660 3136.812988,1344.379028 3134.295898,1344.337891 
	C3120.641602,1344.114258 3106.929688,1344.731689 3093.340088,1343.704468 
	C3034.847168,1339.283081 2987.177734,1295.222900 2977.707764,1237.216064 
	C2976.588867,1230.359863 2975.791992,1223.362061 2975.778564,1216.428101 
	C2975.639404,1145.437744 2975.628662,1074.446777 2975.712402,1003.456299 
	C2975.787109,939.947083 3022.330078,885.969849 3085.166504,876.472778 
	C3090.076904,875.730713 3095.129395,875.724243 3100.115967,875.723572 
	C3372.413330,875.690125 3644.711670,875.352234 3917.007568,875.993347 
	C3969.057129,876.115906 4006.230469,903.190125 4029.470947,949.169678 
	C4038.432373,966.899170 4041.807129,986.176941 4041.758301,1006.150940 
	C4041.586182,1076.474609 4041.981445,1146.800415 4041.603760,1217.122437 
	C4041.273682,1278.577271 3997.427734,1330.378784 3938.069092,1341.909180 
	C3929.648438,1343.544800 3920.910645,1344.203735 3912.319092,1344.209351 
	C3717.677979,1344.334717 3523.037109,1344.350952 3328.396240,1344.143921 
	C3320.467041,1344.135498 3314.951904,1346.352905 3309.196045,1351.921143 
	C3280.498291,1379.683594 3251.282959,1406.911255 3222.233643,1434.310181 
	C3199.238525,1455.999023 3176.232178,1477.675903 3153.195068,1499.320312 
	C3150.778076,1501.591431 3148.120850,1503.606689 3144.548828,1505.829834 
	C3143.522705,1505.918701 3142.609375,1505.823120 3142.609375,1505.823120 
z"/>
<path fill="#CBDAFD" opacity="1.000000" stroke="none" 
	d="
M3142.509766,1506.293213 
	C3142.609375,1505.823120 3143.522705,1505.918701 3143.942383,1506.106812 
	C3143.711426,1506.451050 3143.060791,1506.607178 3142.509766,1506.293213 
z"/>
</svg>